<?xml version="1.0" standalone="no"?>
<!DOCTYPE svg PUBLIC "-//W3C//DTD SVG 20010904//EN"
 "http://www.w3.org/TR/2001/REC-SVG-20010904/DTD/svg10.dtd">
<svg version="1.0" xmlns="http://www.w3.org/2000/svg"
 width="276.000000pt" height="245.000000pt" viewBox="0 0 276.000000 245.000000"
 preserveAspectRatio="xMidYMid meet">

<g transform="translate(0.000000,245.000000) scale(0.100000,-0.100000)"
fill="#000000" stroke="none">
<path d="M882 2388 c-7 -7 -12 -19 -12 -27 0 -11 5 -9 16 7 18 25 36 28 54 7
18 -21 4 -50 -35 -71 -19 -10 -35 -22 -35 -26 0 -5 26 -7 58 -7 52 2 54 2 17
8 l-39 6 25 17 c33 21 41 50 22 77 -16 23 -52 28 -71 9z"/>
<path d="M1067 2382 c-35 -38 -9 -112 39 -112 30 0 64 33 64 63 0 58 -67 89
-103 49z m71 -4 c20 -20 15 -76 -8 -88 -37 -20 -67 10 -60 60 5 37 44 52 68
28z"/>
<path d="M1262 2388 c-7 -7 -12 -19 -12 -27 0 -12 6 -9 19 8 13 17 23 22 40
16 36 -11 24 -56 -21 -80 -21 -11 -38 -23 -38 -27 0 -5 26 -7 58 -7 52 2 54 2
17 8 l-39 6 26 17 c32 21 43 50 28 78 -12 23 -58 28 -78 8z"/>
<path d="M1467 2393 c32 -4 32 -5 17 -27 -14 -22 -13 -24 6 -29 12 -3 20 -13
20 -25 0 -23 -28 -36 -54 -26 -9 3 -16 1 -16 -5 0 -6 15 -11 33 -11 54 0 74
35 40 72 -15 17 -15 19 2 38 18 20 17 20 -31 18 -36 -1 -40 -2 -17 -5z"/>
<path d="M687 2318 c-74 -96 -112 -240 -105 -394 6 -142 35 -201 157 -316 87
-83 148 -125 470 -325 170 -105 283 -187 349 -256 l43 -44 -43 -7 c-24 -4
-115 -9 -203 -12 -152 -5 -202 -14 -160 -30 10 -4 100 0 199 9 237 22 232 23
249 -10 13 -24 11 -33 -25 -111 -21 -46 -37 -86 -35 -88 2 -2 21 33 42 78 21
45 41 76 43 70 2 -6 -4 -24 -12 -41 -9 -17 -16 -34 -15 -38 4 -21 -2 -33 -13
-27 -7 4 -8 3 -4 -4 4 -7 -13 -67 -38 -134 -25 -68 -53 -153 -62 -190 -9 -37
-21 -65 -25 -62 -5 3 -6 -2 -3 -11 4 -8 2 -21 -4 -28 -5 -6 -12 -28 -15 -47
-3 -19 -9 -49 -13 -67 -5 -26 -1 -37 20 -58 29 -29 59 -30 64 -1 3 14 0 17
-17 11 -16 -5 -22 -1 -27 20 -13 53 17 208 74 375 34 100 104 260 114 260 10
0 28 -96 28 -153 0 -29 -7 -74 -15 -102 -9 -27 -16 -66 -17 -85 -1 -35 -29
-103 -48 -115 -17 -10 -11 -28 7 -21 31 12 126 90 199 163 l73 72 -17 -45
c-14 -38 -26 -50 -74 -77 -75 -41 -71 -63 8 -43 25 7 26 5 20 -26 l-6 -33 14
30 c21 44 18 21 -9 -75 -22 -76 -24 -79 -20 -35 l5 50 -15 -55 c-21 -81 -19
-124 8 -154 33 -36 58 -40 98 -14 42 28 99 136 99 186 0 54 -37 121 -77 140
-20 10 -33 22 -31 32 6 27 142 88 261 116 26 6 27 5 17 -21 -5 -14 -10 -38 -9
-53 1 -19 4 -13 10 17 8 40 24 71 32 60 6 -8 -29 -129 -36 -123 -4 4 -7 0 -7
-9 0 -21 27 -47 50 -47 11 0 35 14 54 31 39 33 153 196 144 204 -3 3 -15 -9
-27 -27 -11 -18 -21 -29 -21 -25 0 16 47 77 54 70 4 -4 4 -1 1 8 -3 8 2 23 10
34 15 19 16 19 5 -5 -11 -24 -10 -24 4 -6 9 11 16 30 16 43 0 29 16 30 30 2
18 -32 16 -178 -3 -221 -9 -21 -19 -38 -22 -38 -3 0 -3 5 1 12 4 7 3 8 -4 4
-6 -4 -9 -13 -5 -21 3 -10 -1 -15 -12 -15 -10 0 -13 4 -9 13 6 9 3 8 -8 -1
-10 -8 -14 -20 -11 -30 6 -15 4 -15 -10 -4 -14 12 -26 4 -97 -67 -99 -98 -150
-178 -150 -236 0 -49 23 -85 54 -85 75 0 218 183 289 369 34 90 56 114 140
151 26 12 47 25 47 30 0 16 -45 11 -95 -10 -26 -11 -48 -20 -49 -20 -2 0 -6
32 -10 71 -10 111 -47 179 -77 143 -8 -10 -13 -19 -11 -21 5 -7 2 -26 -4 -20
-4 3 -29 -31 -56 -76 -52 -87 -161 -217 -173 -205 -11 11 15 106 30 112 8 3
11 13 8 25 -3 13 14 60 47 127 43 86 50 108 39 115 -8 5 -17 9 -21 9 -14 0
-51 -63 -87 -148 -34 -80 -40 -88 -75 -100 -21 -6 -53 -14 -72 -16 -18 -3 -59
-14 -90 -26 -31 -11 -59 -19 -61 -16 -7 7 96 214 177 355 48 84 68 127 61 134
-13 13 -37 -6 -58 -46 -11 -21 -17 -26 -23 -17 -5 8 -39 14 -96 17 -105 4
-107 -4 -3 -15 l74 -9 -35 -16 c-39 -18 -23 -22 28 -7 l33 9 -18 -32 c-11 -18
-52 -92 -93 -165 -40 -72 -75 -130 -77 -128 -3 2 3 17 12 33 17 28 17 28 -6
-2 -13 -16 -36 -43 -51 -60 l-27 -30 24 60 c37 92 50 192 37 272 -8 48 -8 71
0 80 8 10 7 13 -3 13 -8 0 -27 25 -43 56 -63 121 -273 308 -483 430 -313 182
-441 272 -550 387 -100 106 -127 165 -131 293 -3 63 0 116 8 139 16 49 8 54
-23 13z m1576 -1646 c-3 -12 -9 -22 -14 -22 -12 0 -11 7 2 32 13 25 20 19 12
-10z m-343 -133 c-7 -11 -14 -18 -17 -15 -3 3 0 12 7 21 18 21 23 19 10 -6z
m546 -129 c-18 -46 -14 -53 8 -12 8 15 15 21 16 13 0 -32 -113 -223 -166 -278
-17 -18 -85 -63 -95 -63 -18 0 -8 17 15 28 25 11 166 169 166 186 0 5 -27 -26
-60 -67 -52 -65 -111 -117 -134 -117 -17 0 -2 52 31 110 38 65 218 259 229
247 4 -3 -1 -24 -10 -47z m-62 12 c-53 -46 -65 -52 -30 -14 22 23 42 39 45 37
2 -3 -4 -13 -15 -23z m-446 9 c23 -14 39 -79 32 -126 -8 -52 -53 -129 -93
-159 -24 -18 -29 -19 -38 -6 -12 18 -4 91 18 175 8 33 17 71 20 84 2 14 6 28
9 33 7 10 35 10 52 -1z"/>
<path d="M1670 2344 c0 -3 18 -27 41 -54 23 -27 61 -86 85 -132 l43 -83 2 45
c0 25 4 84 7 131 l7 86 -62 -5 c-33 -2 -75 0 -92 6 -17 6 -31 9 -31 6z"/>
<path d="M857 1078 c-29 -38 -157 -282 -157 -298 0 -6 4 -9 9 -6 5 4 7 -4 4
-16 -2 -13 23 29 56 92 34 63 81 142 106 175 25 33 44 64 42 70 -8 22 -37 14
-60 -17z m-92 -208 c-9 -16 -18 -30 -21 -30 -2 0 2 14 11 30 9 17 18 30 21 30
2 0 -2 -13 -11 -30z m-34 -67 c-12 -20 -14 -14 -5 12 4 9 9 14 11 11 3 -2 0
-13 -6 -23z"/>
<path d="M1105 893 c-19 -27 -35 -52 -35 -56 0 -13 34 -21 38 -9 2 6 14 27 28
47 49 73 22 89 -31 18z"/>
<path d="M1272 785 c-11 -13 -30 -49 -42 -80 -16 -40 -26 -53 -34 -45 -9 7
-23 -5 -50 -40 -69 -90 -176 -177 -176 -142 0 27 37 126 66 179 19 34 34 68
34 76 0 20 -26 29 -38 14 -20 -25 -61 -115 -77 -170 -17 -59 -63 -111 -94
-105 -14 3 -16 19 -13 114 4 118 -5 143 -46 130 -20 -7 -85 -85 -137 -163 -35
-55 -50 -46 -24 14 24 56 18 69 -7 15 l-19 -39 -38 40 c-20 21 -49 60 -64 85
-15 25 -29 40 -31 33 -2 -7 -1 -78 3 -158 l7 -144 29 6 c26 6 29 4 29 -17 0
-13 -7 -36 -15 -52 -16 -31 -12 -66 9 -66 7 0 26 32 43 70 17 39 38 70 45 70
8 0 48 -9 88 -19 41 -11 76 -18 78 -17 1 2 -29 27 -67 56 -82 60 -82 50 5 166
85 113 86 113 78 1 -6 -81 -4 -100 10 -122 19 -29 60 -33 94 -9 21 15 25 15
41 0 36 -33 81 -13 148 64 58 67 81 103 75 120 -3 11 -2 12 8 4 9 -9 6 -28
-15 -85 -14 -40 -24 -78 -21 -86 12 -31 36 -7 86 87 30 55 70 116 91 136 l36
35 6 -37 c11 -67 64 -96 100 -56 26 28 20 36 -9 13 -38 -30 -52 -26 -60 17 -9
52 -22 72 -44 72 -17 0 -38 -23 -115 -125 -17 -22 22 91 49 143 20 39 4 51
-22 17z m-69 -197 c-26 -67 -40 -90 -28 -48 11 37 43 110 49 110 2 0 -7 -28
-21 -62z"/>
<path d="M1566 705 c-9 -26 -7 -32 5 -12 6 10 9 21 6 23 -2 3 -7 -2 -11 -11z"/>
<path d="M1536 625 c-9 -26 -7 -32 5 -12 6 10 9 21 6 23 -2 3 -7 -2 -11 -11z"/>
<path d="M521 344 c0 -11 3 -14 6 -6 3 7 2 16 -1 19 -3 4 -6 -2 -5 -13z"/>
</g>
</svg>
